<?xml version="1.0" encoding="UTF-8" standalone="no"?>
<!DOCTYPE svg PUBLIC "-//W3C//DTD SVG 1.1//EN" "http://www.w3.org/Graphics/SVG/1.1/DTD/svg11.dtd">
<svg version="1.1" xmlns="http://www.w3.org/2000/svg" xmlns:xlink="http://www.w3.org/1999/xlink" preserveAspectRatio="xMidYMid meet" viewBox="0 100 640 200" width="640" height="640"><defs><path d="M232.8 246.17C232.8 280.99 205.79 309.25 172.52 309.25C139.25 309.25 112.24 280.99 112.24 246.17C112.24 211.35 139.25 183.08 172.52 183.08C205.79 183.08 232.8 211.35 232.8 246.17Z" id="aimQ1r43"></path><path d="M364.58 183.08C364.58 209.91 319.77 231.68 264.58 231.68C209.39 231.68 164.58 209.91 164.58 183.08C164.58 156.26 209.39 134.49 264.58 134.49C319.77 134.49 364.58 156.26 364.58 183.08Z" id="i5a4lJ4aK"></path><path d="M446.82 155.51C446.82 194.97 405.99 227.01 355.7 227.01C305.41 227.01 264.58 194.97 264.58 155.51C264.58 116.05 305.41 84.02 355.7 84.02C405.99 84.02 446.82 116.05 446.82 155.51Z" id="a1F7Yghk8R"></path><path d="M531.87 196.64C531.87 227.33 497.11 252.24 454.3 252.24C411.49 252.24 376.73 227.33 376.73 196.64C376.73 165.94 411.49 141.03 454.3 141.03C497.11 141.03 531.87 165.94 531.87 196.64Z" id="h1Gmq4gBGR"></path><path d="M595.42 250.37C595.42 282.87 562.13 309.25 521.12 309.25C480.11 309.25 446.82 282.87 446.82 250.37C446.82 217.88 480.11 191.5 521.12 191.5C562.13 191.5 595.42 217.88 595.42 250.37Z" id="c1TIyf31gq"></path><path d="M168.32 194.3L393.55 194.3L393.55 309.25L168.32 309.25L168.32 194.3Z" id="ewlwxQ6qp"></path><path d="M291.4 194.3L516.64 194.3L516.64 309.25L291.4 309.25L291.4 194.3Z" id="d5ihojCUF7"></path><path d="M152.95 202.49C152.95 236.29 126.3 263.74 93.48 263.74C60.66 263.74 34.02 236.29 34.02 202.49C34.02 168.68 60.66 141.23 93.48 141.23C126.3 141.23 152.95 168.68 152.95 202.49Z" id="e1NlEwIdAw"></path><path d="M282.94 141.23C282.94 167.28 238.74 188.42 184.29 188.42C129.85 188.42 85.65 167.28 85.65 141.23C85.65 115.19 129.85 94.05 184.29 94.05C238.74 94.05 282.94 115.19 282.94 141.23Z" id="c1Sbbg8mU6"></path><path d="M364.07 114.47C364.07 152.78 323.79 183.88 274.18 183.88C224.57 183.88 184.29 152.78 184.29 114.47C184.29 76.15 224.57 45.05 274.18 45.05C323.79 45.05 364.07 76.15 364.07 114.47Z" id="b2cwqsMSII"></path><path d="M447.96 154.39C447.96 184.19 413.68 208.38 371.44 208.38C329.21 208.38 294.92 184.19 294.92 154.39C294.92 124.59 329.21 100.4 371.44 100.4C413.68 100.4 447.96 124.59 447.96 154.39Z" id="fhervBhJq"></path><path d="M510.65 206.57C510.65 238.12 477.81 263.74 437.36 263.74C396.91 263.74 364.07 238.12 364.07 206.57C364.07 175.02 396.91 149.4 437.36 149.4C477.81 149.4 510.65 175.02 510.65 206.57Z" id="aRKHV6psV"></path><path d="M89.33 152.12L311.52 152.12L311.52 263.74L89.33 263.74L89.33 152.12Z" id="g2BehuMUZk"></path><path d="M210.75 152.12L432.94 152.12L432.94 263.74L210.75 263.74L210.75 152.12Z" id="l4dhxnB9vW"></path><path d="M232.8 246.17C232.8 280.99 205.79 309.25 172.52 309.25C139.25 309.25 112.24 280.99 112.24 246.17C112.24 211.35 139.25 183.08 172.52 183.08C205.79 183.08 232.8 211.35 232.8 246.17Z" id="c4ho1xDvoT"></path><path d="M364.58 183.08C364.58 209.91 319.77 231.68 264.58 231.68C209.39 231.68 164.58 209.91 164.58 183.08C164.58 156.26 209.39 134.49 264.58 134.49C319.77 134.49 364.58 156.26 364.58 183.08Z" id="a7Kl1z8Tyx"></path><path d="M446.82 155.51C446.82 194.97 405.99 227.01 355.7 227.01C305.41 227.01 264.58 194.97 264.58 155.51C264.58 116.05 305.41 84.02 355.7 84.02C405.99 84.02 446.82 116.05 446.82 155.51Z" id="bxjIsSx2u"></path><path d="M531.87 196.64C531.87 227.33 497.11 252.24 454.3 252.24C411.49 252.24 376.73 227.33 376.73 196.64C376.73 165.94 411.49 141.03 454.3 141.03C497.11 141.03 531.87 165.94 531.87 196.64Z" id="b1CWQbDqQv"></path><path d="M595.42 250.37C595.42 282.87 562.13 309.25 521.12 309.25C480.11 309.25 446.82 282.87 446.82 250.37C446.82 217.88 480.11 191.5 521.12 191.5C562.13 191.5 595.42 217.88 595.42 250.37Z" id="cwPYgoLZh"></path><path d="M168.32 194.3L393.55 194.3L393.55 309.25L168.32 309.25L168.32 194.3Z" id="bW8fuFHN0"></path><path d="M291.4 194.3L516.64 194.3L516.64 309.25L291.4 309.25L291.4 194.3Z" id="b11uoqYYQE"></path></defs><g><g><g><g><use xlink:href="#aimQ1r43" opacity="1" fill="#000000" fill-opacity="1"></use></g><g><use xlink:href="#i5a4lJ4aK" opacity="1" fill="#000000" fill-opacity="1"></use></g><g><use xlink:href="#a1F7Yghk8R" opacity="1" fill="#000000" fill-opacity="1"></use></g><g><use xlink:href="#h1Gmq4gBGR" opacity="1" fill="#000000" fill-opacity="1"></use></g><g><use xlink:href="#c1TIyf31gq" opacity="1" fill="#000000" fill-opacity="1"></use></g><g><use xlink:href="#ewlwxQ6qp" opacity="1" fill="#000000" fill-opacity="1"></use></g><g><use xlink:href="#d5ihojCUF7" opacity="1" fill="#000000" fill-opacity="1"></use></g></g><g><g><use xlink:href="#e1NlEwIdAw" opacity="1" fill="#c6c6c6" fill-opacity="1"></use></g><g><use xlink:href="#c1Sbbg8mU6" opacity="1" fill="#c6c6c6" fill-opacity="1"></use></g><g><use xlink:href="#b2cwqsMSII" opacity="1" fill="#c6c6c6" fill-opacity="1"></use></g><g><use xlink:href="#fhervBhJq" opacity="1" fill="#c6c6c6" fill-opacity="1"></use></g><g><use xlink:href="#aRKHV6psV" opacity="1" fill="#c6c6c6" fill-opacity="1"></use></g><g><use xlink:href="#g2BehuMUZk" opacity="1" fill="#c6c6c6" fill-opacity="1"></use></g><g><use xlink:href="#l4dhxnB9vW" opacity="1" fill="#c6c6c6" fill-opacity="1"></use></g></g><g><g><use xlink:href="#c4ho1xDvoT" opacity="1" fill="#9e9e9e" fill-opacity="1"></use></g><g><use xlink:href="#a7Kl1z8Tyx" opacity="1" fill="#9e9e9e" fill-opacity="1"></use></g><g><use xlink:href="#bxjIsSx2u" opacity="1" fill="#9e9e9e" fill-opacity="1"></use></g><g><use xlink:href="#b1CWQbDqQv" opacity="1" fill="#9e9e9e" fill-opacity="1"></use></g><g><use xlink:href="#cwPYgoLZh" opacity="1" fill="#9e9e9e" fill-opacity="1"></use></g><g><use xlink:href="#bW8fuFHN0" opacity="1" fill="#9e9e9e" fill-opacity="1"></use></g><g><use xlink:href="#b11uoqYYQE" opacity="1" fill="#9e9e9e" fill-opacity="1"></use></g></g></g></g></svg>
